<?xml version="1.0" standalone="no"?>
<!DOCTYPE svg PUBLIC "-//W3C//DTD SVG 20010904//EN"
 "http://www.w3.org/TR/2001/REC-SVG-20010904/DTD/svg10.dtd">
<svg version="1.0" xmlns="http://www.w3.org/2000/svg"
 width="349.000000pt" height="710.000000pt" viewBox="0 0 349.000000 710.000000"
 preserveAspectRatio="xMidYMid meet">

<g transform="translate(0.000000,710.000000) scale(0.100000,-0.100000)"
fill="#000000" stroke="none">
<path d="M3220 6868 c-140 -121 -342 -297 -448 -392 -106 -95 -217 -184 -247
-200 -71 -38 -139 -39 -251 -3 -173 55 -229 62 -504 62 -226 0 -266 -3 -353
-22 -659 -149 -1160 -650 -1297 -1298 -14 -66 -23 -156 -27 -265 -8 -239 15
-415 83 -620 230 -691 877 -1151 1619 -1150 630 1 1217 365 1495 925 79 159
110 247 147 425 25 114 27 145 27 345 0 189 -3 234 -22 321 -55 255 -182 525
-343 731 -27 35 -49 66 -48 70 0 5 45 46 100 93 146 124 261 239 294 295 l30
50 3 330 c2 182 2 373 0 426 l-3 97 -255 -220z m-1177 -1232 c352 -105 606
-358 713 -711 26 -83 28 -103 28 -255 0 -137 -4 -178 -22 -242 -50 -184 -133
-328 -261 -457 -153 -155 -351 -257 -564 -291 -120 -20 -321 -8 -432 24 -409
120 -681 448 -725 874 -19 176 16 356 100 527 115 233 320 418 559 506 137 49
198 59 366 55 127 -3 164 -7 238 -30z"/>
<path d="M3100 2684 c-47 -42 -147 -128 -222 -191 -76 -63 -147 -130 -158
-148 -28 -44 -26 -119 5 -247 109 -442 -56 -899 -424 -1176 -301 -227 -716
-296 -1043 -175 -69 26 -218 115 -218 131 0 4 78 75 172 157 389 337 518 456
545 503 l28 47 3 433 4 433 -419 -363 c-230 -200 -629 -548 -888 -772 -259
-225 -471 -412 -473 -416 -5 -13 142 -195 243 -299 283 -292 613 -478 989
-557 150 -31 419 -43 571 -25 336 40 625 152 895 349 105 76 312 289 393 402
87 122 203 355 250 497 117 360 119 781 5 1128 -28 86 -132 312 -160 347 -12
15 -21 10 -98 -58z"/>
</g>
</svg>
